<?xml version="1.0" standalone="no"?>
<svg xmlns="http://www.w3.org/2000/svg" viewBox="0 0 1440 900" width="1440" height="900">
  <defs>
  <clipPath id="_clipPath_Jek8AFAw1vy6XWNsr7TGsvVWHuJeJcuF"><rect width="1440" height="900"/></clipPath>
  </defs>
  <g clip-path="url(#_clipPath_Jek8AFAw1vy6XWNsr7TGsvVWHuJeJcuF)">
    <g>
      <path d=" M 521.324 403.754 L 360.526 496.601 C 356.011 499.207 348.68 499.208 344.165 496.602 L 263.316 449.932 C 257.25 446.431 257.249 440.744 263.313 437.24 L 421.247 345.974 C 427.362 342.44 437.289 342.442 443.403 345.977 L 521.328 391.041 C 527.398 394.551 527.396 400.247 521.324 403.754 Z " fill="rgb(94,77,255)"/>
      <path d=" M 259.326 305.841 L 258.773 443.798 L 352.346 497.441 L 525.894 397.799 L 526.383 258.769 L 362.567 356.578 C 356.926 359.946 347.794 359.899 342.188 356.473 L 259.326 305.841 Z " fill="rgb(94,77,255)"/>
      <path d=" M 521.811 265.409 L 361.411 357.466 C 356.397 360.344 348.261 360.335 343.253 357.446 L 263.821 311.615 C 257.755 308.115 257.753 302.428 263.816 298.924 L 421.751 207.658 C 427.865 204.125 437.793 204.126 443.907 207.662 L 521.832 252.725 C 527.902 256.235 527.892 261.919 521.811 265.409 Z " fill="rgb(146,130,255)"/>
    </g>
    <g>
      <path d=" M 817.324 403.828 L 656.949 496.42 C 652.19 499.168 644.462 499.168 639.703 496.42 L 559.315 450.008 C 553.25 446.507 553.249 440.819 559.313 437.315 L 717.247 346.049 C 723.362 342.515 733.289 342.517 739.403 346.052 L 817.328 391.116 C 823.398 394.626 823.396 400.322 817.324 403.828 Z " fill="rgb(83,185,124)"/>
      <path d=" M 555.326 231.916 L 554.773 443.873 L 648.346 497.516 L 821.894 397.873 L 822.383 184.844 L 658.567 282.653 C 652.926 286.021 643.794 285.974 638.188 282.548 L 555.326 231.916 Z " fill="rgb(83,185,124)"/>
      <path d=" M 817.827 192.512 L 658.208 284.668 C 653.032 287.657 644.627 287.657 639.451 284.668 L 559.819 238.693 C 553.754 235.191 553.753 229.503 559.816 225.999 L 717.751 134.733 C 723.865 131.2 733.793 131.201 739.907 134.737 L 817.832 179.8 C 823.902 183.31 823.9 189.006 817.827 192.512 Z " fill="rgb(150,255,178)"/>
    </g>
    <g>
      <path d=" M 1111.941 403.744 L 951.069 496.623 C 946.584 499.213 939.302 499.213 934.817 496.623 L 853.932 449.924 C 847.867 446.423 847.866 440.735 853.93 437.231 L 1011.864 345.965 C 1017.979 342.431 1027.907 342.433 1034.02 345.968 L 1111.945 391.032 C 1118.015 394.542 1118.013 400.238 1111.941 403.744 Z " fill="rgb(185,219,90)"/>
      <path d=" M 849.943 305.832 L 849.391 443.789 L 942.963 497.432 L 1116.512 397.789 L 1117 258.76 L 953.185 356.569 C 947.543 359.937 938.411 359.89 932.805 356.464 L 849.943 305.832 Z " fill="rgb(185,219,90)"/>
      <path d=" M 1112.444 265.428 L 951.947 358.091 C 947.256 360.8 939.638 360.8 934.947 358.091 L 854.436 311.609 C 848.371 308.107 848.37 302.419 854.434 298.915 L 1012.368 207.649 C 1018.483 204.116 1028.41 204.117 1034.524 207.653 L 1112.449 252.716 C 1118.519 256.226 1118.517 261.922 1112.444 265.428 Z " fill="rgb(210,242,112)"/>
    </g>
    <g transform="matrix(1,0,0,1,517.074,570)">
      <text transform="matrix(1,0,0,1,-6.84,58.08)" style="font-family:&quot;Montserrat&quot;;font-weight:400;font-size:60px;font-style:normal;fill:#53b97c;stroke:none;">Easy Graph</text></g><g transform="matrix(1,0,0,1,586.574,655)">
      <text transform="matrix(1,0,0,1,-0.176,21.377)" style="font-family:&quot;Open Sans&quot;;font-weight:400;font-size:20px;font-style:normal;fill:#53b97c;stroke:none;">Tus gráficas a un click</text>
    </g>
  </g>
</svg>