<?xml version="1.0" standalone="no"?><!-- Generator: Gravit.io --><svg xmlns="http://www.w3.org/2000/svg" xmlns:xlink="http://www.w3.org/1999/xlink" style="isolation:isolate" viewBox="0 0 1440 900" width="1440" height="900"><defs><clipPath id="_clipPath_7RE93pqIiaSzLu69EEPQE1n85orMMJfC"><rect width="1440" height="900"/></clipPath></defs><g clip-path="url(#_clipPath_7RE93pqIiaSzLu69EEPQE1n85orMMJfC)"><g><path d=" M 553.441 501.971 L 392.643 594.818 C 388.128 597.425 380.797 597.425 376.282 594.819 L 295.433 548.15 C 289.367 544.649 289.366 538.961 295.43 535.457 L 453.364 444.191 C 459.479 440.658 469.407 440.659 475.52 444.195 L 553.445 489.258 C 559.515 492.768 559.513 498.465 553.441 501.971 Z " fill="rgb(94,77,255)"/><path d=" M 291.443 404.058 L 290.89 542.016 L 384.463 595.658 L 558.012 496.016 L 558.5 356.986 L 394.684 454.795 C 389.043 458.163 379.911 458.117 374.305 454.691 L 291.443 404.058 Z " fill="rgb(94,77,255)"/><path d=" M 553.928 363.626 L 393.528 455.684 C 388.514 458.562 380.378 458.552 375.37 455.663 L 295.938 409.832 C 289.872 406.332 289.87 400.646 295.933 397.142 L 453.868 305.876 C 459.983 302.342 469.91 302.344 476.024 305.879 L 553.949 350.942 C 560.019 354.453 560.009 360.136 553.928 363.626 Z " fill="rgb(146,130,255)"/></g><g><path d=" M 848.749 502.12 L 688.374 594.713 C 683.615 597.46 675.888 597.46 671.129 594.713 L 590.741 548.301 C 584.676 544.799 584.675 539.111 590.738 535.607 L 748.673 444.341 C 754.788 440.808 764.715 440.809 770.829 444.345 L 848.754 489.408 C 854.824 492.918 854.822 498.614 848.749 502.12 Z " fill="rgb(83,185,124)"/><path d=" M 586.752 330.208 L 586.199 542.165 L 679.772 595.808 L 853.32 496.166 L 853.809 283.136 L 689.993 380.945 C 684.352 384.313 675.22 384.266 669.613 380.841 L 586.752 330.208 Z " fill="rgb(83,185,124)"/><path d=" M 849.253 290.805 L 689.634 382.961 C 684.458 385.949 676.053 385.949 670.877 382.961 L 591.245 336.985 C 585.18 333.483 585.178 327.795 591.242 324.291 L 749.177 233.025 C 755.291 229.492 765.219 229.494 771.332 233.029 L 849.257 278.092 C 855.327 281.602 855.325 287.299 849.253 290.805 Z " fill="rgb(150,255,178)"/></g><g><path d=" M 1144.058 501.952 L 983.186 594.831 C 978.701 597.421 971.419 597.421 966.935 594.831 L 886.05 548.132 C 879.985 544.631 879.983 538.943 886.047 535.439 L 1043.982 444.173 C 1050.096 440.64 1060.024 440.641 1066.137 444.176 L 1144.062 489.24 C 1150.132 492.75 1150.13 498.446 1144.058 501.952 Z " fill="rgb(185,219,90)"/><path d=" M 882.557 397.4 L 882.004 535.357 L 975.576 589 L 1149.125 489.358 L 1149.613 350.328 L 985.798 448.137 C 980.156 451.505 971.024 451.458 965.418 448.033 L 882.557 397.4 Z " fill="rgb(185,219,90)"/><path d=" M 1144.562 363.636 L 984.064 456.3 C 979.373 459.008 971.755 459.008 967.064 456.3 L 886.553 409.817 C 880.488 406.315 880.487 400.627 886.551 397.123 L 1044.485 305.857 C 1050.6 302.324 1060.527 302.325 1066.641 305.861 L 1144.566 350.924 C 1150.636 354.434 1150.634 360.131 1144.562 363.636 Z " fill="rgb(210,242,112)"/></g></g></svg>